# xmcd
#
# Track frame offsets:
#	150
#	11988
#	27107
#	40397
#	60065
#	76348
#	112211
#	165045
#	181526
#
# Disc length: 2943 seconds
#
# Revision: 1
# Processed by: cddbd v1.5PL3 Copyright (c) Steve Scherf et al.
# Submitted via: audiograbber 1.82.01
#
DISCID=5c0b7d09
DTITLE=Johnny Winter - 1973-08-10 - Rehearsals-San Francisco, CA 
DYEAR=1900
DGENRE=
TTITLE0=Johnny Winter - Good Morning Little Schoolgirl
TTITLE1=Johnny Winter - Let It Bleed
TTITLE2=Johnny Winter - Silver Train
TTITLE3=Johnny Winter - Come On In My kitchen
TTITLE4=Johnny Winter - Rock And Roll Me
TTITLE5=Johnny Winter - Rollin' And Tumblin'
TTITLE6=Johnny Winter - Jam
TTITLE7=Johnny Winter - Matchbox Blues
TTITLE8=Johnny Winter - I Walk On Gilded Splinters
EXTD=
EXTT0=
EXTT1=
EXTT2=
EXTT3=
EXTT4=
EXTT5=
EXTT6=
EXTT7=
EXTT8=
PLAYORDER=
